<svg preserveAspectRatio="none" width="100%" height="100%" overflow="visible" style="display: block;" viewBox="0 0 68.5313 51.7377" fill="none" xmlns="http://www.w3.org/2000/svg">
<g id="Group">
<path id="Vector" d="M50.5444 12.2202C43.6985 16.6079 37.6628 21.9901 32.6943 29.3124C27.3156 9.57636 43.3883 -0.512248 68.5313 0.0200215C66.5905 6.63487 64.8665 13.2812 62.6857 19.7525C59.7246 28.5525 54.1224 35.3844 44.9589 35.514C37.1393 35.6225 34.565 39.7757 33.2011 46.3205C32.6209 49.1149 32.064 51.6046 28.556 51.7377C27.7057 49.304 26.9321 46.7897 25.9517 44.37C25.1881 42.4965 24.141 40.6651 21.7901 40.9172C8.83518 42.3039 4.65692 32.8772 1.18226 22.5609C0.758769 21.3038 0.358617 20.0397 0.0284909 18.7545C-0.0715468 18.3623 0.115191 17.8896 0.228567 16.9336C7.31127 17.69 14.5073 17.2803 20.8864 21.8571C27.7691 26.7946 24.7579 36.0708 29.9332 43.498C33.5613 29.9707 43.7318 22.5609 50.311 12.3498C50.4277 12.4093 50.5477 12.4548 50.6678 12.5003C50.5911 12.5284 50.5177 12.5564 50.441 12.5844C50.4777 12.4618 50.5111 12.3428 50.5444 12.2202Z" fill="var(--fill-0, #122620)"/>
</g>
</svg>
